HIERARCHY
ROOT Hips
{
  OFFSET 0.0409142 18.4715 -3.15165
  CHANNELS 6 Xposition Yposition Zposition Zrotation Xrotation Yrotation
  JOINT LHipJoint
  {
    OFFSET 0 0 0
    CHANNELS 6 Xposition Yposition Zposition Zrotation Xrotation Yrotation
    JOINT LeftUpLeg
    {
      OFFSET 1.8 -1.4 0.085
      CHANNELS 6 Xposition Yposition Zposition Zrotation Xrotation Yrotation
      JOINT LeftLeg
      {
        OFFSET 2.215 -6 0
        CHANNELS 6 Xposition Yposition Zposition Zrotation Xrotation Yrotation
        JOINT LeftFoot
        {
          OFFSET 2.5 -6.9 0
          CHANNELS 6 Xposition Yposition Zposition Zrotation Xrotation Yrotation
          JOINT LeftToeBase
          {
            OFFSET 0.2 -0.5 1.95
            CHANNELS 6 Xposition Yposition Zposition Zrotation Xrotation Yrotation
            End Site
            {
              OFFSET 0 0 1
            }
          }
        }
      }
    }
  }
  JOINT RHipJoint
  {
    OFFSET 0 0 0
    CHANNELS 6 Xposition Yposition Zposition Zrotation Xrotation Yrotation
    JOINT RightUpLeg
    {
      OFFSET -1.8 -1.4 0.085
      CHANNELS 6 Xposition Yposition Zposition Zrotation Xrotation Yrotation
      JOINT RightLeg
      {
        OFFSET -2.215 -6 0
        CHANNELS 6 Xposition Yposition Zposition Zrotation Xrotation Yrotation
        JOINT RightFoot
        {
          OFFSET -2.5 -6.9 0
          CHANNELS 6 Xposition Yposition Zposition Zrotation Xrotation Yrotation
          JOINT RightToeBase
          {
            OFFSET -0.2 -0.5 1.95
            CHANNELS 6 Xposition Yposition Zposition Zrotation Xrotation Yrotation
            End Site
            {
              OFFSET 0 0 1
            }
          }
        }
      }
    }
  }
  JOINT LowerBack
  {
    OFFSET 0 0 0
    CHANNELS 6 Xposition Yposition Zposition Zrotation Xrotation Yrotation
    JOINT Spine
    {
      OFFSET -0.087 1.94 -0.2889
      CHANNELS 6 Xposition Yposition Zposition Zrotation Xrotation Yrotation
      JOINT Spine1
      {
        OFFSET 0 1.95 0.06
        CHANNELS 6 Xposition Yposition Zposition Zrotation Xrotation Yrotation
        JOINT Neck
        {
          OFFSET 0 0 0
          CHANNELS 6 Xposition Yposition Zposition Zrotation Xrotation Yrotation
          JOINT Neck1
          {
            OFFSET 0 1.6 0.34
            CHANNELS 6 Xposition Yposition Zposition Zrotation Xrotation Yrotation
            JOINT Head
            {
              OFFSET 0 1.667 -0.24
              CHANNELS 6 Xposition Yposition Zposition Zrotation Xrotation Yrotation
              End Site
              {
                OFFSET 0 1.686 -0.12
              }
            }
          }
        }
        JOINT LeftShoulder
        {
          OFFSET 0 0 0
          CHANNELS 6 Xposition Yposition Zposition Zrotation Xrotation Yrotation
          JOINT LeftArm
          {
            OFFSET 2.7 1.55 -0.73
            CHANNELS 6 Xposition Yposition Zposition Zrotation Xrotation Yrotation
            JOINT LeftForeArm
            {
              OFFSET 5.45 0 0
              CHANNELS 6 Xposition Yposition Zposition Zrotation Xrotation Yrotation
              JOINT LeftHand
              {
                OFFSET 3.45 0 0
                CHANNELS 6 Xposition Yposition Zposition Zrotation Xrotation Yrotation
                JOINT LeftFingerBase
                {
                  OFFSET 0 0 0
                  CHANNELS 6 Xposition Yposition Zposition Zrotation Xrotation Yrotation
                  JOINT LeftHandIndex1
                  {
                    OFFSET 0.75 0 0
                    CHANNELS 6 Xposition Yposition Zposition Zrotation Xrotation Yrotation
                    End Site
                    {
                      OFFSET 0.6 0 0
                    }
                  }
                }
                JOINT LThumb
                {
                  OFFSET 0 0 0
                  CHANNELS 6 Xposition Yposition Zposition Zrotation Xrotation Yrotation
                  End Site
                  {
                    OFFSET 0.59 0 0.59
                  }
                }
              }
            }
          }
        }
        JOINT RightShoulder
        {
          OFFSET 0 0 0
          CHANNELS 6 Xposition Yposition Zposition Zrotation Xrotation Yrotation
          JOINT RightArm
          {
            OFFSET -2.7 1.55 -0.73
            CHANNELS 6 Xposition Yposition Zposition Zrotation Xrotation Yrotation
            JOINT RightForeArm
            {
              OFFSET -5.45 0 0
              CHANNELS 6 Xposition Yposition Zposition Zrotation Xrotation Yrotation
              JOINT RightHand
              {
                OFFSET -3.45 0 0
                CHANNELS 6 Xposition Yposition Zposition Zrotation Xrotation Yrotation
                JOINT RightFingerBase
                {
                  OFFSET 0 0 0
                  CHANNELS 6 Xposition Yposition Zposition Zrotation Xrotation Yrotation
                  JOINT RightHandIndex1
                  {
                    OFFSET -0.75 0 0
                    CHANNELS 6 Xposition Yposition Zposition Zrotation Xrotation Yrotation
                    End Site
                    {
                      OFFSET -0.6 0 0
                    }
                  }
                }
                JOINT RThumb
                {
                  OFFSET 0 0 0
                  CHANNELS 6 Xposition Yposition Zposition Zrotation Xrotation Yrotation
                  End Site
                  {
                    OFFSET -0.59 0 0.59
                  }
                }
              }
            }
          }
        }
      }
    }
  }
}
MOTION
Frames:	8
Frame Time:	0.00833333
0.0405965 18.4712 -3.1523 0.00131144 -0.0036988 0.00291121 0 0 0 3.48488e-19 1.55301e-18 -7.76503e-19 1.8 -1.4 0.085 -18.4384 -4.34797 1.51892 2.215 -6 2.22045e-16 3.91591 3.01222 17.5442 2.5 -6.9 4.44089e-16 -2.42809 2.14909 -19.2759 0.2 -0.5 1.95 8.54951e-15 7.76503e-19 -0 0 0 0 3.48488e-19 1.55301e-18 -7.76503e-19 -1.8 -1.4 0.085 19.1088 -0.756476 -0.443371 -2.215 -6 0 0.0779011 3.30982 -0.493174 -2.5 -6.9 -4.44089e-16 0.621885 -2.54461 0.965883 -0.2 -0.5 1.95 -1.2806e-15 2.1843e-15 1.25312e-14 0 0 0 3.48488e-19 1.55301e-18 -7.76503e-19 -0.087 1.94 -0.2889 -0.0049708 0.0093131 -0.00218317 0 1.95 0.06 0.00738922 -0.00315647 -0.00345691 0 0 0 0.00324081 -16.0051 -0.000742268 1.38778e-17 1.6 0.34 0.00374296 20.9949 -0.00175183 6.93889e-18 1.667 -0.24 -0.000987722 11.0077 0.00111705 0 0 0 0.328795 0.00473815 3.49487 2.7 1.55 -0.73 -44.2617 -56.8182 -47.8275 5.45 0 3.55271e-15 17.852 58.8462 -0.00465097 3.45 -3.55271e-15 -4.44089e-16 3.58465 2.25215 -11.4304 0 0 0 1.42885e-07 -2.74147e-07 1.72045e-06 0.75 -3.55271e-15 -8.88178e-16 9.93923e-16 -3.18055e-15 -3.18055e-15 0 0 0 -2.18663e-15 7.95139e-16 -0 0 0 0 -0.273273 0.0184608 -3.42291 -2.7 1.55 -0.73 51.0405 -53.1752 47.2251 -5.45 0 0 -0.715142 -9.20115 3.56369 -3.45 -1.77636e-15 -3.55271e-15 -7.19598 -1.42986 -16.9745 0 0 0 8.51009e-07 1.92595e-05 -2.7768e-06 -0.75 -1.77636e-15 0 1.59028e-15 -3.18055e-15 -2.38542e-15 0 0 0 -1.59028e-15 3.18055e-15 3.97569e-16 
0.0393093 18.4699 -3.15489 0.00725297 -0.0191569 0.015677 0 0 0 -3.26677e-18 6.21202e-18 -0 1.8 -1.4 0.085 -18.4381 -4.36438 1.51589 2.215 -6 0 3.90608 3.0557 17.5314 2.5 -6.9 0 -2.42316 2.12715 -19.2663 0.2 -0.5 1.95 -4.86188e-15 1.55301e-18 -7.76503e-19 0 0 0 -3.26677e-18 6.21202e-18 -0 -1.8 -1.4 0.085 19.1023 -0.749115 -0.459191 -2.215 -6 0 0.0767244 3.32111 -0.471189 -2.5 -6.9 0 0.625915 -2.57421 0.97433 -0.2 -0.5 1.95 2.99795e-15 2.19284e-15 1.25359e-14 0 0 0 -3.26677e-18 6.21202e-18 -0 -0.087 1.94 -0.2889 -0.0257869 0.0463505 -0.0116712 0 1.95 0.06 0.0364587 -0.0139727 -0.0179381 0 0 0 0.0171167 -16.027 -0.00387898 0 1.6 0.34 0.0197506 20.973 -0.00920678 3.46945e-18 1.667 -0.24 -0.00663784 11.0425 0.00623077 0 0 0 0.328795 0.00473815 3.49487 2.7 1.55 -0.73 -44.2002 -56.8338 -47.7732 5.45 1.77636e-15 3.55271e-15 17.8176 58.7905 -0.0046435 3.45 0 0 3.55267 2.28099 -11.5661 0 0 0 1.42885e-07 -2.74147e-07 1.72045e-06 0.75 -3.55271e-15 4.44089e-16 7.95139e-16 -4.77083e-15 -7.95139e-15 0 0 0 1.98785e-15 -2.38542e-15 -0 0 0 0 -0.269653 0.0184609 -3.41874 -2.7 1.55 -0.73 51.0642 -53.1621 47.2278 -5.45 0 -3.55271e-15 -0.71743 -9.17784 3.55835 -3.45 1.77636e-15 3.55271e-15 -7.16205 -1.4299 -16.969 0 0 0 8.51009e-07 1.92595e-05 -2.7768e-06 -0.75 0 3.55271e-15 -1.59028e-15 3.18055e-15 7.55382e-15 0 0 0 3.18055e-15 0 -1.98785e-15 
0.0380195 18.4686 -3.15749 0.0133122 -0.034721 0.0286221 0 0 0 -3.35777e-18 -6.21202e-18 -0 1.8 -1.4 0.085 -18.4379 -4.38146 1.51259 2.215 -6 -4.44089e-16 3.89626 3.10055 17.519 2.5 -6.9 0 -2.41823 2.1047 -19.2568 0.2 -0.5 1.95 -2.0544e-15 0 -1.55301e-18 0 0 0 -3.35777e-18 -6.21202e-18 -0 -1.8 -1.4 0.085 19.0956 -0.741501 -0.475451 -2.215 -6 0 0.0755099 3.3324 -0.448703 -2.5 -6.9 -4.44089e-16 0.630234 -2.60463 0.983015 -0.2 -0.5 1.95 -2.70388e-15 2.21148e-15 1.25483e-14 0 0 0 -3.35777e-18 -6.21202e-18 -0 -0.087 1.94 -0.2889 -0.0467426 0.0833535 -0.0212801 0 1.95 0.06 0.0654454 -0.0244994 -0.0325238 0 0 0 0.0311362 -16.0491 -0.00704316 6.93889e-18 1.6 0.34 0.0359183 20.9509 -0.0167313 3.46945e-18 1.667 -0.24 -0.0125658 11.0779 0.0114489 0 0 0 0.328795 0.00473815 3.49487 2.7 1.55 -0.73 -44.1383 -56.8495 -47.7187 5.45 -1.77636e-15 -3.55271e-15 17.7827 58.734 -0.00463596 3.45 3.55271e-15 0 3.51997 2.31037 -11.7041 0 0 0 1.42885e-07 -2.74147e-07 1.72045e-06 0.75 0 0 2.38542e-15 -3.97569e-15 -4.77083e-15 0 0 0 -3.97569e-16 -1.59028e-15 -4.77083e-15 0 0 0 -0.266035 0.018461 -3.41456 -2.7 1.55 -0.73 51.0878 -53.149 47.2303 -5.45 -1.77636e-15 0 -0.71976 -9.15393 3.55295 -3.45 1.77636e-15 0 -7.12741 -1.42995 -16.9633 0 0 0 8.51009e-07 1.92595e-05 -2.7768e-06 -0.75 0 -3.55271e-15 1.59028e-15 0 7.55382e-15 0 0 0 -0 -3.18055e-15 -0 
0.0367587 18.4676 -3.16011 0.0181589 -0.0491185 0.0395945 0 0 0 -7.27971e-19 -1.2424e-17 -0 1.8 -1.4 0.085 -18.4361 -4.39109 1.51226 2.215 -6 -6.66134e-16 3.88661 3.13034 17.5033 2.5 -6.9 -4.44089e-16 -2.41327 2.08793 -19.2464 0.2 -0.5 1.95 5.43427e-15 -6.21202e-18 1.55301e-18 0 0 0 -7.27971e-19 -1.2424e-17 -0 -1.8 -1.4 0.085 19.0912 -0.736674 -0.486868 -2.215 -6 0 0.074608 3.3438 -0.431713 -2.5 -6.9 0 0.631467 -2.62608 0.989095 -0.2 -0.5 1.95 3.16177e-15 2.19906e-15 1.2511e-14 0 0 0 -7.27971e-19 -1.2424e-17 -0 -0.087 1.94 -0.2889 -0.0660158 0.120735 -0.0295586 0 1.95 0.06 0.0952766 -0.038211 -0.0459593 0 0 0 0.0435451 -16.0689 -0.00991351 -5.20417e-18 1.6 0.34 0.0502522 20.9311 -0.0234642 1.60462e-17 1.667 -0.24 -0.0155125 11.1065 0.0155327 0 0 0 0.328795 0.00473815 3.49487 2.7 1.55 -0.73 -44.0804 -56.8648 -47.6659 5.45 1.77636e-15 0 17.7524 58.6856 -0.00462952 3.45 3.55271e-15 -4.44089e-16 3.49676 2.33341 -11.816 0 0 0 1.42885e-07 -2.74147e-07 1.72045e-06 0.75 0 0 -2.38542e-15 -2.38542e-15 3.18055e-15 0 0 0 7.95139e-16 7.95139e-16 6.36111e-15 0 0 0 -0.262395 0.0184611 -3.41034 -2.7 1.55 -0.73 51.1112 -53.1358 47.2344 -5.45 3.55271e-15 3.55271e-15 -0.721566 -9.13665 3.54826 -3.45 1.77636e-15 0 -7.1006 -1.42997 -16.9604 0 0 0 8.51009e-07 1.92595e-05 -2.7768e-06 -0.75 1.77636e-15 3.55271e-15 -1.98626e-31 3.18055e-15 3.57812e-15 0 0 0 -0 0 5.96354e-15 
0.0355601 18.4673 -3.16281 0.0204167 -0.0609295 0.0464374 0 0 0 -1.45594e-18 0 -0 1.8 -1.4 0.085 -18.431 -4.38468 1.51833 2.215 -6 -2.22045e-16 3.87725 3.12747 17.4806 2.5 -6.9 0 -2.40825 2.08332 -19.2343 0.2 -0.5 1.95 1.67871e-15 0 -1.55301e-18 0 0 0 -1.45594e-18 0 -0 -1.8 -1.4 0.085 19.0916 -0.737907 -0.487941 -2.215 -6 -4.44089e-16 0.0743786 3.3555 -0.426291 -2.5 -6.9 4.44089e-16 0.625933 -2.62838 0.989605 -0.2 -0.5 1.95 -1.90631e-16 2.17421e-15 1.25483e-14 0 0 0 -1.45594e-18 0 -0 -0.087 1.94 -0.2889 -0.0818152 0.158697 -0.0350559 -1.38778e-17 1.95 0.06 0.12701 -0.058498 -0.0570142 0 0 0 0.052532 -16.084 -0.0121656 -3.46945e-18 1.6 0.34 0.0606978 20.916 -0.0285247 -3.46945e-18 1.667 -0.24 -0.0121772 11.1211 0.0171851 0 0 0 0.328795 0.00473815 3.49487 2.7 1.55 -0.73 -44.0308 -56.8794 -47.6166 5.45 -1.77636e-15 0 17.7312 58.6531 -0.00462521 3.45 0 0 3.4927 2.3432 -11.8723 0 0 0 1.42885e-07 -2.74147e-07 1.72045e-06 0.75 0 0 -3.97569e-16 -4.77083e-15 -6.36111e-15 0 0 0 -2.38542e-15 0 -3.18055e-15 0 0 0 -0.258714 0.0184611 -3.40602 -2.7 1.55 -0.73 51.1338 -53.1225 47.2418 -5.45 0 0 -0.722309 -9.13355 3.5451 -3.45 0 0 -7.09027 -1.42995 -16.9636 0 0 0 8.51009e-07 1.92595e-05 -2.7768e-06 -0.75 -1.77636e-15 3.55271e-15 4.77083e-15 -3.18055e-15 5.1684e-15 0 0 0 -6.36111e-15 0 2.38542e-15 
0.0344583 18.4681 -3.16562 0.0188283 -0.0673337 0.0481283 0 0 0 -8.25034e-19 0 1.2424e-17 1.8 -1.4 0.085 -18.4208 -4.35141 1.53523 2.215 -6 4.44089e-16 3.86789 3.0674 17.4461 2.5 -6.9 4.44089e-16 -2.40301 2.09748 -19.2206 0.2 -0.5 1.95 -2.70316e-15 -1.2424e-17 -3.10601e-18 0 0 0 -8.25034e-19 0 1.2424e-17 -1.8 -1.4 0.085 19.0992 -0.750155 -0.47297 -2.215 -6 0 0.0750611 3.36846 -0.436267 -2.5 -6.9 0 0.607601 -2.6009 0.981379 -0.2 -0.5 1.95 -3.17905e-16 2.19906e-15 1.25483e-14 0 0 0 -8.25034e-19 0 1.2424e-17 -0.087 1.94 -0.2889 -0.0937585 0.1942 -0.037134 -1.38778e-17 1.95 0.06 0.163071 -0.0856154 -0.0655046 0 0 0 0.0564316 -16.0941 -0.0136122 8.67362e-19 1.6 0.34 0.065409 20.9059 -0.0312221 6.93889e-18 1.667 -0.24 -0.00053623 11.1199 0.0149713 0 0 0 0.328795 0.00473815 3.49487 2.7 1.55 -0.73 -43.9917 -56.8933 -47.568 5.45 0 3.55271e-15 17.7161 58.6276 -0.00462183 3.45 0 4.44089e-16 3.50537 2.33593 -11.8442 0 0 0 1.42885e-07 -2.74147e-07 1.72045e-06 0.75 0 0 1.19271e-15 -5.56597e-15 -3.18055e-15 0 0 0 -0 0 6.36111e-15 0 0 0 -0.255044 0.0184612 -3.40163 -2.7 1.55 -0.73 51.1531 -53.1085 47.2528 -5.45 0 0 -0.720476 -9.15253 3.54429 -3.45 0 -3.55271e-15 -7.10153 -1.42985 -16.9759 0 0 0 8.51009e-07 1.92595e-05 -2.7768e-06 -0.75 0 0 -1.59028e-15 0 4.37326e-15 0 0 0 -8.82781e-32 -3.18055e-15 -1.59028e-15 
0.0334046 18.4694 -3.16848 0.0152472 -0.0716071 0.0467371 0 0 0 -8.12901e-19 -2.48481e-17 -0 1.8 -1.4 0.085 -18.408 -4.30554 1.55717 2.215 -6 -2.22045e-16 3.85859 2.98141 17.406 2.5 -6.9 -4.44089e-16 -2.39772 2.12105 -19.2057 0.2 -0.5 1.95 -2.19073e-15 -1.2424e-17 -1.55301e-18 0 0 0 -8.12901e-19 -2.48481e-17 -0 -1.8 -1.4 0.085 19.1105 -0.767243 -0.449991 -2.215 -6 0 0.0762651 3.38173 -0.454967 -2.5 -6.9 0 0.583834 -2.55858 0.968832 -0.2 -0.5 1.95 1.75762e-15 2.18353e-15 1.25234e-14 0 0 0 -8.12901e-19 -2.48481e-17 -0 -0.087 1.94 -0.2889 -0.10316 0.229843 -0.0371409 -1.38778e-17 1.95 0.06 0.200728 -0.117514 -0.0722555 0 0 0 0.0577031 -16.1008 -0.0145939 0 1.6 0.34 0.0671399 20.8992 -0.0326469 0 1.667 -0.24 0.0158374 11.1085 0.0108661 0 0 0 0.328795 0.00473815 3.49487 2.7 1.55 -0.73 -43.9588 -56.9067 -47.5217 5.45 0 0 17.7073 58.6128 -0.00461988 3.45 0 0 3.53166 2.31874 -11.7733 0 0 0 1.42885e-07 -2.74147e-07 1.72045e-06 0.75 0 4.44089e-16 -3.18055e-15 -2.38542e-15 1.59028e-15 0 0 0 3.97569e-16 2.38542e-15 1.59028e-15 0 0 0 -0.25135 0.0184613 -3.39717 -2.7 1.55 -0.73 51.1715 -53.0944 47.2662 -5.45 0 3.55271e-15 -0.717625 -9.18249 3.54465 -3.45 -1.77636e-15 -3.55271e-15 -7.12518 -1.42972 -16.993 0 0 0 8.51009e-07 1.92595e-05 -2.7768e-06 -0.75 0 0 -1.59028e-15 3.18055e-15 4.37326e-15 0 0 0 -3.18055e-15 -3.18055e-15 6.36111e-15 
0.0323289 18.4706 -3.17133 0.0122869 -0.0789563 0.0448135 0 0 0 2.53577e-18 0 1.2424e-17 1.8 -1.4 0.085 -18.3962 -4.2683 1.5755 2.215 -6 2.22045e-16 3.84974 2.91691 17.37 2.5 -6.9 0 -2.39269 2.14055 -19.1898 0.2 -0.5 1.95 -1.49131e-16 1.2424e-17 3.10601e-18 0 0 0 2.53577e-18 0 1.2424e-17 -1.8 -1.4 0.085 19.1206 -0.779713 -0.430582 -2.215 -6 0 0.0774655 3.39365 -0.473648 -2.5 -6.9 0 0.566019 -2.52299 0.95836 -0.2 -0.5 1.95 3.13811e-15 2.18353e-15 1.25359e-14 0 0 0 2.53577e-18 0 1.2424e-17 -0.087 1.94 -0.2889 -0.111382 0.270543 -0.0367094 0 1.95 0.06 0.235567 -0.152409 -0.0780649 0 0 0 0.0598152 -16.1054 -0.0155486 -1.38778e-17 1.6 0.34 0.0697577 20.8946 -0.0342912 0 1.667 -0.24 0.0322935 11.0922 0.00774827 0 0 0 0.328795 0.00473815 3.49487 2.7 1.55 -0.73 -43.9268 -56.9197 -47.4815 5.45 0 0 17.7082 58.6203 -0.00462086 3.45 0 -8.88178e-16 3.57153 2.30071 -11.7183 0 0 0 1.42885e-07 -2.74147e-07 1.72045e-06 0.75 0 4.44089e-16 -2.38542e-15 -3.18055e-15 -4.77083e-15 0 0 0 -1.19271e-15 -7.95139e-16 1.59028e-15 0 0 0 -0.247552 0.0184614 -3.39263 -2.7 1.55 -0.73 51.1936 -53.081 47.2807 -5.45 0 0 -0.716916 -9.20743 3.54451 -3.45 0 0 -7.14933 -1.4296 -17.0082 0 0 0 8.51009e-07 1.92595e-05 -2.7768e-06 -0.75 1.77636e-15 0 -0 0 3.57812e-15 0 0 0 0 0 -3.57812e-15 
